{"title":"The Usual Suspects 1995 DVDrip English Klam","uid":6532463,"size":1637816997,"categoryP":"video","categoryS":"movies","magnet":"?xt=urn:btih:b32c24e3806ae0dd4959fa3be4d677f730af99ec&amp;dn=The+Usual+Suspects+1995+DVDrip+English+Klam&amp;tr=udp%3A%2F%2Ftracker.openbittorrent.com%3A80&amp;tr=udp%3A%2F%2Fopen.demonii.com%3A1337&amp;tr=udp%3A%2F%2Ftracker.coppersurfer.tk%3A6969&amp;tr=udp%3A%2F%2Fexodus.desync.com%3A6969","seeders":1,"leechers":0,"uploader":"Klambake","files":-1,"time":1310393613,"description":"With: Kevin Spacey, Gabriel Byrne and Benicio Del Toro\n\nNa een explosie in een haven vertelt ooggetuige Verbal Kint aan de politie hoe het allemaal zo ver is gekomen. Via flashbacks zien we hoe vijf criminelen bij elkaar gebracht werden bij een &quot;line-up&quot;. Ze besluiten hierna samen een overval te plegen. Er lijkt echter iemand achter de schermen de hele bijeenkomst op touw gezet te hebben.\n\nA boat has been destroyed, criminals are dead, and the key to this mystery lies with the only survivor and his twisted, convoluted story beginning with five career crooks in a seemingly random police lineup.\n\n------------------ Dutch Friends ------------------\nYou can find my Friends at: http://www.Film-Test.nl \n------ They got my dutchs subs ---- and more ------\n\nGeneral:\n\nComplete name                    : The Usual Suspects\\The Usual Suspects.avi\nFormat                           : AVI\nFormat/Info                      : Audio Video Interleave\nFile size                        : 1.52 GiB\nDuration                         : 1h 41mn\nOverall bit rate                 : 2 146 Kbps\n\nVideo:\n\nFormat                           : MPEG-4 Visual\nFormat profile                   : Simple@L3\nFormat settings, BVOP            : No\nFormat settings, QPel            : No\nFormat settings, GMC             : No warppoints\nFormat settings, Matrix          : Default (H.263)\nCodec ID                         : XVID\nCodec ID/Hint                    : XviD\nDuration                         : 1h 41mn\nBit rate                         : 1 688 Kbps\nWidth                            : 720 pixels\nHeight                           : 304 pixels\nDisplay aspect ratio             : 2.35:1\nFrame rate                       : 25.000 fps\nColor space                      : YUV\nChroma subsampling               : 4:2:0\nBit depth                        : 8 bits\nScan type                        : Progressive\nBits/(Pixel*Frame)               : 0.308\nStream size                      : 1.20 GiB (79%)\nWriting library                  : XviD 1.1.2 (UTC 2006-11-01)\n\nAudio:\n\nFormat                           : AC-3\nFormat/Info                      : Audio Coding 3\nMode extension                   : CM (complete main)\nCodec ID                         : 2000\nDuration                         : 1h 41mn\nBit rate mode                    : Constant\nBit rate                         : 448 Kbps\nChannel(s)                       : 6 channels\nChannel positions                : Front: L C R, Side: L R, LFE\nSampling rate                    : 48.0 KHz\nBit depth                        : 16 bits\nStream size                      : 326 MiB (21%)\nAlignment                        : Aligned on interleaves\nInterleave, duration             : 32 ms (0.80 video frame)\nInterleave, preload duration     : 32 ms\n\n","torrent":{"xt":"urn:btih:b32c24e3806ae0dd4959fa3be4d677f730af99ec","amp;dn":"The+Usual+Suspects+1995+DVDrip+English+Klam","amp;tr":["udp%3A%2F%2Ftracker.openbittorrent.com%3A80","udp%3A%2F%2Fopen.demonii.com%3A1337","udp%3A%2F%2Ftracker.coppersurfer.tk%3A6969","udp%3A%2F%2Fexodus.desync.com%3A6969"],"infoHash":"b32c24e3806ae0dd4959fa3be4d677f730af99ec","infoHashBuffer":{"type":"Buffer","data":[179,44,36,227,128,106,224,221,73,89,250,59,228,214,119,247,48,175,153,236]},"announce":[],"urlList":[]}}